# xmcd
#
# Track frame offsets: 
#        180
#        16936
#        35841
#        56328
#        81116
#        104762
#        128210
#        150665
#        169461
#        205807
#        228311
#        251469
#
# Disc length: 3576 seconds
#
# Revision: 3
# Processed by: cddbd v1.5.2PL0 Copyright (c) Steve Scherf et al.
# Submitted via: ExactAudioCopy v0.95b4
#
DISCID=9d0df60c
DTITLE=The Prodigy - Experience
DYEAR=1992
DGENRE=Electronic
TTITLE0=Jericho
TTITLE1=Music Reach
TTITLE2=Wind it up
TTITLE3=Your love (remix)
TTITLE4=Hyperspeed (g-force part 2)
TTITLE5=Charly (trip into drum and bass version)
TTITLE6=Out of space
TTITLE7=Everybody in the place (155 and rising)
TTITLE8=Wheater experience
TTITLE9=Fire (sunrise version)
TTITLE10=Ruff in the jungle business
TTITLE11=Death of the prodigy dancers (live)
EXTD=
EXTT0=
EXTT1=
EXTT2=
EXTT3=
EXTT4=
EXTT5=
EXTT6=
EXTT7=
EXTT8=
EXTT9=
EXTT10=
EXTT11=
PLAYORDER=
